<svg id="Capa_1" enable-background="new 0 0 512 512" height="512" viewBox="0 0 512 512" width="512" xmlns="http://www.w3.org/2000/svg"><g><g><path d="m480.468 379.159c20.092-36.542 31.532-78.512 31.532-123.159 0-141.385-114.615-256-256-256s-256 114.615-256 256c0 44.647 11.44 86.617 31.532 123.159z" fill="#ffbb16"/></g><g><g><g><path d="m373.306 274.722c-23.78-12.283-49.731-20.948-77.128-25.267l-.001.01-206.322 129.972c38.891 70.731 98.785 41.465 135.652 130.765 9.999 1.187 20.175 1.798 30.493 1.798 61.692 0 118.283-21.825 162.48-58.172 25.108-20.649 18.962-74.715 18.949-74.739z" fill="#3d72a3"/></g><g><path d="m31.532 379.159c38.894 70.736 110.245 121.094 193.998 131.028l35.855-35.855c7.633-7.633 7.633-20.009 0-27.643l-48.953-48.953c-7.633-7.633-20.009-7.633-27.643 0l-8.945 8.945c-7.633 7.633-20.009 7.633-27.643 0l-10.143-10.143c-7.633-7.633-7.633-20.009 0-27.643l48.342-48.342c3.666-3.666 8.637-5.725 13.821-5.725h76.409c10.795 0 19.546-8.751 19.546-19.546v-45.817c-13.09-2.064-26.507-3.147-40.177-3.147-96.737 0-180.932 53.665-224.467 132.841z" fill="#21bf4a"/></g><g><path d="m437.019 321.299c-19.235-19.235-40.775-34.753-63.723-46.586v54.787c0 10.929 4.341 21.41 12.069 29.138l22.106 22.106c8.046 8.046 8.046 21.092 0 29.138l-1.951 1.951c-8.046 8.046-8.046 21.092 0 29.138l12.905 12.905c25.141-20.661 46.269-46.022 62.054-74.737-11.395-20.75-25.877-40.257-43.46-57.84z" fill="#21bf4a"/></g><g><path d="m281.006 247.535c-8.228-.801-16.568-1.217-25.006-1.217-96.738 0-180.933 53.664-224.468 132.841 8.727 15.872 19.093 30.714 30.862 44.307 30.788-95.182 115.792-165.967 218.612-175.931z" fill="#17aa3d"/></g></g><g><circle cx="256" cy="90" fill="#2b2b2b" r="70"/></g><g><circle cx="256" cy="90" fill="#e6e6e6" r="55"/></g><g><path d="m281 97.5h-25c-4.142 0-7.5-3.357-7.5-7.5v-35c0-4.143 3.358-7.5 7.5-7.5 4.143 0 7.5 3.357 7.5 7.5v27.5h17.5c4.143 0 7.5 3.357 7.5 7.5s-3.357 7.5-7.5 7.5z" fill="#f73e3e"/></g><g><circle cx="396" cy="160" fill="#2b2b2b" r="70"/></g><g><circle cx="396" cy="160" fill="#e6e6e6" r="55"/></g><g><path d="m395.999 167.5c-1.143 0-2.291-.261-3.352-.791-2.542-1.271-4.147-3.868-4.147-6.709v-35c0-4.143 3.357-7.5 7.5-7.5s7.5 3.357 7.5 7.5v19.994l7.984-5.992c3.313-2.489 8.016-1.817 10.5 1.496 2.487 3.313 1.816 8.014-1.496 10.5l-19.986 15c-1.323.994-2.908 1.502-4.503 1.502z" fill="#f73e3e"/></g><g><circle cx="116" cy="160" fill="#2b2b2b" r="70"/></g><g><circle cx="116" cy="160" fill="#e6e6e6" r="55"/></g><g><path d="m132.618 186.158c-2.065 0-4.122-.848-5.604-2.513l-16.615-18.658c-1.223-1.373-1.899-3.148-1.899-4.987v-35c0-4.143 3.358-7.5 7.5-7.5s7.5 3.357 7.5 7.5v32.145l14.716 16.526c2.755 3.093 2.48 7.834-.613 10.588-1.429 1.273-3.211 1.899-4.985 1.899z" fill="#f73e3e"/></g></g></g></svg>